<svg width="89" height="30" viewBox="0 0 89 30" fill="none" xmlns="http://www.w3.org/2000/svg">
<path d="M12.344 8.368L13.4 10.8L2.936 15.344L13.4 19.952L12.344 22.32L0.6 16.848V13.84L12.344 8.368ZM34.968 8.752C36.3547 8.752 37.464 9.22133 38.296 10.16C39.128 11.0773 39.544 12.3253 39.544 13.904V26H36.6V14.32C36.6 12.144 35.8107 11.056 34.232 11.056C33.4 11.056 32.696 11.3013 32.12 11.792C31.544 12.2613 30.9253 13.008 30.264 14.032V26H27.32V14.32C27.32 12.144 26.5307 11.056 24.952 11.056C24.0987 11.056 23.384 11.3013 22.808 11.792C22.232 12.2827 21.624 13.0293 20.984 14.032V26H18.04V9.136H20.568L20.824 11.6C22.0827 9.70133 23.704 8.752 25.688 8.752C26.7333 8.752 27.6187 9.01867 28.344 9.552C29.0907 10.0853 29.624 10.832 29.944 11.792C30.6053 10.8107 31.3307 10.064 32.12 9.552C32.9307 9.01867 33.88 8.752 34.968 8.752ZM50.0535 8.752C51.2055 8.752 52.2402 8.912 53.1575 9.232C54.0748 9.552 54.9495 10.032 55.7815 10.672L54.5335 12.528C53.7655 12.0373 53.0295 11.6747 52.3255 11.44C51.6428 11.2053 50.9175 11.088 50.1495 11.088C49.1895 11.088 48.4322 11.2907 47.8775 11.696C47.3228 12.08 47.0455 12.6133 47.0455 13.296C47.0455 13.9787 47.3015 14.512 47.8135 14.896C48.3468 15.28 49.2962 15.6533 50.6615 16.016C52.5388 16.4853 53.9362 17.1253 54.8535 17.936C55.7922 18.7467 56.2615 19.856 56.2615 21.264C56.2615 22.928 55.6108 24.1973 54.3095 25.072C53.0295 25.9467 51.4615 26.384 49.6055 26.384C47.0455 26.384 44.9228 25.648 43.2375 24.176L44.8055 22.384C46.2348 23.472 47.8135 24.016 49.5415 24.016C50.6508 24.016 51.5255 23.792 52.1655 23.344C52.8268 22.8747 53.1575 22.2453 53.1575 21.456C53.1575 20.88 53.0402 20.4213 52.8055 20.08C52.5708 19.7173 52.1655 19.408 51.5895 19.152C51.0135 18.8747 50.1708 18.5867 49.0615 18.288C47.2695 17.8187 45.9682 17.1893 45.1575 16.4C44.3682 15.6107 43.9735 14.608 43.9735 13.392C43.9735 12.5173 44.2295 11.728 44.7415 11.024C45.2748 10.2987 46.0002 9.744 46.9175 9.36C47.8562 8.95467 48.9015 8.752 50.0535 8.752ZM68.159 0.175999L70.655 0.751999L63.263 29.328L60.735 28.72L68.159 0.175999ZM76.656 8.368L88.4 13.84V16.848L76.656 22.32L75.6 19.952L86.064 15.344L75.6 10.8L76.656 8.368Z" fill="black"/>
</svg>
